<svg width="312" height="100" viewBox="0 0 312 100" fill="none" xmlns="http://www.w3.org/2000/svg">
<path fill-rule="evenodd" clip-rule="evenodd" d="M81.1513 23.8483C83.3714 21.4544 87.1549 19.5554 92.1722 19.5554C102.534 19.5554 111.993 27.6463 111.993 41.1025C111.993 54.5594 102.616 62.8974 91.9253 62.8974C88.2245 62.8974 83.3714 61.9067 81.1513 59.1001V78.0878C81.1513 79.1615 80.3292 79.9868 79.2596 79.9868H68.9794C67.9104 79.9868 67.0876 79.1615 67.0876 78.0878V22.6929C67.0876 21.6198 67.9104 20.7939 68.9794 20.7939H79.2596C80.2471 20.7939 81.1513 21.6198 81.1513 22.6929V23.8483ZM89.6477 49.8836C94.3606 49.8836 98.0633 45.9981 98.0633 41.2679C98.0633 36.5377 94.3606 32.6522 89.6477 32.6522C84.9361 32.6522 81.2334 36.5377 81.2334 41.2679C81.2334 45.9981 84.9361 49.8836 89.6477 49.8836Z" fill="#FF7D00"/>
<path fill-rule="evenodd" clip-rule="evenodd" d="M160.277 0C165.125 0 169.068 3.96254 169.068 8.83332C169.068 13.7041 165.125 17.6666 160.277 17.6666C155.429 17.6666 151.485 13.7041 151.485 8.83332C151.485 3.96254 155.429 0 160.277 0ZM165.453 61.6535H155.1C154.032 61.6535 153.128 60.746 153.128 59.6723V22.6886C153.128 21.6156 154.032 20.7904 155.1 20.7904H165.453C166.521 20.7904 167.343 21.6156 167.343 22.6886V59.6723C167.343 60.746 166.521 61.6535 165.453 61.6535Z" fill="#FF7D00"/>
<path fill-rule="evenodd" clip-rule="evenodd" d="M248.872 40.0266V59.9197C248.872 60.9109 247.885 61.6536 246.898 61.6536H236.619C235.632 61.6536 234.645 60.9109 234.645 59.9197V41.1825C234.645 36.1468 231.603 32.7626 226.833 32.7626C222.146 32.7626 218.857 35.982 218.857 40.8517V59.9197C218.857 60.9109 217.871 61.6536 216.883 61.6536H206.604C205.618 61.6536 204.631 60.9109 204.631 59.9197V41.1825C204.631 36.1468 201.588 32.7626 196.819 32.7626C192.05 32.7626 188.842 36.1468 188.842 41.1825V59.9197C188.842 60.9109 187.856 61.6536 186.869 61.6536H176.508C175.438 61.6536 174.616 60.8279 174.616 59.755V22.6924C174.616 21.6195 175.438 20.7937 176.508 20.7937H186.869C187.856 20.7937 188.842 21.5365 188.842 22.527V24.0132C191.145 21.7019 195.256 19.5554 200.766 19.5554C206.604 19.5554 212.032 22.0314 214.581 26.4068C217.212 23.2698 221.736 19.5554 230.041 19.5554C243.279 19.5554 248.872 28.9659 248.872 40.0266Z" fill="#FF7D00"/>
<path fill-rule="evenodd" clip-rule="evenodd" d="M286.201 20.7933H296.482C297.551 20.7933 298.373 21.6188 298.373 22.6913V59.7406C298.373 60.8131 297.551 61.6386 296.482 61.6386H286.201C285.132 61.6386 284.31 60.8131 284.31 59.7406V58.5027C282.582 61.0608 278.635 62.8759 273.783 62.8759C263.42 62.8759 253.469 54.542 253.469 41.0918C253.469 27.6422 263.502 19.5554 273.865 19.5554C278.717 19.5554 282.582 21.3711 284.31 23.9292V22.6913C284.31 21.6188 285.215 20.7933 286.201 20.7933ZM275.813 32.6457C271.1 32.6457 267.398 36.5293 267.398 41.2571C267.398 45.985 271.1 49.8686 275.813 49.8686C280.525 49.8686 284.227 45.985 284.227 41.2571C284.227 36.5293 280.525 32.6457 275.813 32.6457Z" fill="#FF7D00"/>
<path fill-rule="evenodd" clip-rule="evenodd" d="M31.0822 5.83959C48.4327 5.83959 62.0823 19.2201 62.0823 35.987C62.0823 52.7546 48.4327 66.1351 31.0822 66.1351C13.6503 66.1351 0 52.7546 0 35.987C0 19.2201 13.6503 5.83959 31.0822 5.83959ZM31.1643 52.5066C40.2918 52.5066 46.6233 45.0731 46.6233 35.987C46.6233 26.9016 40.2918 19.4681 31.1643 19.4681C22.0367 19.4681 15.459 26.9016 15.459 35.987C15.459 45.0731 22.0367 52.5066 31.1643 52.5066Z" fill="#FF7D00"/>
<path fill-rule="evenodd" clip-rule="evenodd" d="M120.258 33.0068H115.237C114.166 33.0068 113.344 32.0989 113.344 31.0263V22.6917C113.344 21.619 114.166 20.7935 115.237 20.7935H120.258V10.7254C120.258 9.65276 121.164 8.82721 122.234 8.82721H132.606C133.676 8.82721 134.499 9.65276 134.499 10.7254V20.7935H144.97C146.039 20.7935 146.945 21.619 146.945 22.6917V31.0263C146.945 32.0989 146.039 33.0068 144.97 33.0068H134.499V45.2208C134.499 48.9342 136.968 49.0172 137.71 49.0172C138.45 49.0172 139.438 48.9342 140.755 48.0269C141.578 47.4491 142.072 47.2013 142.731 47.2013C143.142 47.2013 143.966 47.2837 144.542 48.1093L149.069 54.4633C149.48 55.0412 149.727 55.7013 149.727 56.1968C149.727 56.774 149.398 57.4341 148.905 57.9296C145.941 61.2305 140.014 62.4685 135.651 62.4685C128.16 62.4685 120.258 58.7552 120.258 46.7059V33.0068Z" fill="#FF7D00"/>
<path fill-rule="evenodd" clip-rule="evenodd" d="M248.927 81.9197C247.52 80.2099 245.509 79.3433 242.952 79.3433C241.827 79.3433 240.727 79.5677 239.682 80.0101C238.813 80.3779 238.049 80.8488 237.404 81.4125V72.0518C237.404 71.3182 237.213 70.7538 236.835 70.3737C236.458 69.9943 235.938 69.8016 235.29 69.8016C235.173 69.8016 235.027 69.8165 234.852 69.8457L234.669 69.8756V99.0687H237.404V97.7429C237.446 97.7824 237.491 97.8259 237.539 97.8719C237.806 98.1262 238.173 98.3889 238.629 98.6536C239.082 98.9163 239.646 99.1556 240.306 99.3632C240.968 99.5714 241.75 99.6778 242.63 99.6778C244.277 99.6778 245.76 99.2704 247.04 98.4668C248.322 97.6624 249.32 96.4683 250.008 94.9186C250.689 93.3807 251.035 91.4795 251.035 89.267C251.035 86.0892 250.325 83.6172 248.927 81.9197ZM248.137 89.5511C248.137 92.0613 247.624 94.0034 246.611 95.324C245.611 96.6278 244.149 97.2888 242.267 97.2888C241.31 97.2888 240.387 97.065 239.522 96.6227C238.678 96.1913 237.965 95.6432 237.404 94.9919V84.5571C237.404 84.3048 237.496 84.0544 237.684 83.7949C238.115 83.2079 238.763 82.7266 239.61 82.364C240.466 81.9988 241.442 81.8133 242.509 81.8133C244.361 81.8133 245.774 82.4659 246.708 83.7528C247.657 85.0618 248.137 87.0129 248.137 89.5511Z" fill="#FF7D00"/>
<path fill-rule="evenodd" clip-rule="evenodd" d="M271.12 97.7073C270.28 97.645 269.914 97.4601 269.755 97.316C269.521 97.1045 269.353 96.7807 269.257 96.3544C269.153 95.8995 269.101 95.2941 269.101 94.5557V86.4323C269.101 83.8919 268.542 82.0491 267.44 80.9551C266.338 79.8617 264.526 79.3075 262.054 79.3075C261.047 79.3075 259.998 79.4256 258.937 79.6579C257.868 79.8922 256.978 80.2069 256.293 80.5923C255.509 81.018 255.128 81.4398 255.128 81.883C255.128 82.2859 255.326 82.7661 255.733 83.3494L255.798 83.4435H256.35L256.409 83.3981C257.085 82.8758 257.904 82.4637 258.844 82.175C259.791 81.8843 260.803 81.7376 261.852 81.7376C263.427 81.7376 264.579 82.0789 265.275 82.7525C265.968 83.4241 266.32 84.5388 266.32 86.067V86.8022C266.099 86.7846 265.879 86.771 265.659 86.7613C265.359 86.7476 265.047 86.7399 264.72 86.7399C262.633 86.7399 260.735 87.0098 259.078 87.5425C257.404 88.0805 256.107 88.8675 255.222 89.8818C254.328 90.907 253.875 92.1788 253.875 93.6621C253.875 95.5069 254.437 96.9429 255.545 97.9292C256.644 98.909 258.154 99.4061 260.033 99.4061C262.492 99.4061 264.637 98.5716 266.416 96.926C266.542 97.5885 266.848 98.1245 267.328 98.5223C267.905 99.0012 268.685 99.2438 269.649 99.2438C270.094 99.2438 270.601 99.1731 271.157 99.0336L271.323 98.9921V97.7222L271.12 97.7073ZM265.526 95.1812C264.94 95.6919 264.186 96.137 263.284 96.5043C262.387 96.8709 261.429 97.0565 260.437 97.0565C259.21 97.0565 258.275 96.7502 257.661 96.1448C257.048 95.5407 256.737 94.6783 256.737 93.5804C256.737 90.4657 259.695 88.8864 265.528 88.8864H266.074C266.17 88.8864 266.266 88.8903 266.36 88.9V94.0275C266.36 94.2221 266.215 94.581 265.526 95.1812Z" fill="#FF7D00"/>
<path fill-rule="evenodd" clip-rule="evenodd" d="M290.2 83.6162C289.92 82.2687 289.221 81.2002 288.125 80.4407C287.039 79.6883 285.633 79.3075 283.947 79.3075C282.522 79.3075 281.18 79.5439 279.958 80.0108C278.907 80.4129 278.011 80.9432 277.29 81.5907C277.134 80.3067 276.333 79.6313 274.951 79.6313H274.569V98.9987H277.358V84.8361C277.358 84.4787 277.448 84.1924 277.629 83.9671C278.143 83.3759 278.919 82.8715 279.935 82.4662C280.959 82.0602 281.995 81.8536 283.015 81.8536C285.468 81.8536 286.897 82.6513 287.387 84.2999C287.621 84.9772 287.74 85.9764 287.74 87.2682V98.9987H290.529V87.2682C290.529 85.718 290.418 84.4864 290.2 83.6162Z" fill="#FF7D00"/>
<path fill-rule="evenodd" clip-rule="evenodd" d="M296.303 69.666C296.183 69.666 296.035 69.6803 295.855 69.7095L295.667 69.7401V98.9989H298.508V71.9615C298.508 71.2269 298.305 70.6541 297.905 70.2595C297.506 69.8655 296.967 69.666 296.303 69.666Z" fill="#FF7D00"/>
<path fill-rule="evenodd" clip-rule="evenodd" d="M302.252 88.1627L310.232 80.3335L309.526 79.8833C309.063 79.6783 308.679 79.5794 308.352 79.5794C307.968 79.5794 307.595 79.677 307.241 79.8709C306.902 80.057 306.506 80.3784 306.065 80.8241L299.32 87.568V88.8829L307.097 97.9411C307.887 98.9132 308.824 99.4064 309.881 99.4064C310.336 99.4064 310.784 99.3185 311.21 99.1461L311.493 99.0309L302.252 88.1627Z" fill="#FF7D00"/>
</svg>
